<svg version="1.2" xmlns="http://www.w3.org/2000/svg" viewBox="0 0 120 46" width="120" height="46">
	<title>New Project</title>
	<style>
		.s0 { fill: #ffffff } 
	</style>
	<path id="Path 1" fill-rule="evenodd" class="s0" d="m44.2 32.8c-0.4 1.1-1 2-1.7 2.8 0.5-0.2 1-0.3 1.6-0.2 0.9 0.2 1.1 1.2 1.1 2.1 0 4.1-6.5 6.8-9.8 7.9-0.7 0.2-1.8 0.5-2.6 0.6-0.4 0-0.6-0.2-0.8-0.5v-0.3c0-0.3 0-0.6 0.4-0.7 0.8-0.4 2.1-0.4 2.9-0.7 2.4-0.6 7.8-3.2 8.1-5.9 0.2-1.8-1.8-1-2.7-0.5-0.7 0.4-1.6 1.3-2.2 1.5-1 0.3-1.7-0.9-1-1.6 0.7-0.6 1.9-1.2 2.6-1.9 1.6-1.3 3.3-3.2 2.5-5.4-0.5-1.5-2.4-1.7-3.6-0.9-2.4 1.4-2.9 6.8-3.1 9.4 0 1.2 0.1 2.5 0 3.7-0.1 1.2-1.9 1.1-1.9-0.1-0.1-4.2-0.1-8.3 0.5-12.5 0.3-1.4 0.5-3.1 0.9-4.4 0.2-0.4 0.3-0.9 0.8-1 0.9-0.1 0.5 1.3 0.4 1.8-0.2 1.3-0.6 2.7-0.7 4 0.4-0.4 0.6-0.9 1-1.4 3.4-3.8 9.1-0.7 7.3 4.2zm49.2-0.1v-6.6l-1.1 1.1c-1.9 1.7-4.6 2.5-6.9 1.2-0.7-0.3-2.3-1.2-1.7-2.2 0.3-0.4 1.5-0.8 1.9-1.2 0.5-0.4 1.3-1.3 0.8-2-0.2 0-0.6 0.2-0.8 0.2-3.2 1.5-3.8 7.2-4.2 10.2-0.2 0.6-1.1 0.7-1.4 0.2-0.2-0.3-0.1-1.5 0-2q0-0.8 0.1-1.6c-0.4 0.4-0.8 0.7-1.3 1-1.9 1.3-5.3 2.4-6.9 0.1-1.1 2-3.4 5.2-6.1 3.9-1.8-0.8-2.1-3.6-2.1-5.4-0.1-1.2 0.1-2.4 0.1-3.7l-3.3 0.9c-0.2 3.6-0.3 7.3-0.2 10.9 0 0.8 0.2 2 0.1 2.7 0 0.9-1.5 1-1.7 0.1-0.1-0.7-0.1-2.1-0.2-2.9 0-1 0-2-0.1-3-1.4 1.5-4 2.5-5.6 0.8-0.2-0.3-0.3-0.5-0.5-0.7 0-0.1 0-0.1-0.1-0.1-0.4 1.8-1.6 4.6-3.8 4.5-2.3 0-2.4-3.7-2.2-5.4 0.1-1.3 1.9-1.1 1.9 0.1 0 0.6-0.2 1.2-0.2 1.7 0 0.9-0.1 2.9 1.4 1.9 1.1-0.7 1.9-3.1 2.1-4.5 0.1-0.4 0.1-1.4 0.3-1.7 0.4-0.4 1-0.5 1.4-0.1 0.5 0.3 0.3 0.8 0.4 1.3 0.4 3.9 3.8 1.6 4.9-0.4l0.1-4.7-6 1.7c-1.1 0.2-1.5-1.5-0.5-1.8l6.6-1.7 0.1-3c0.1-0.8 1.6-0.9 1.9-0.2 0.2 0.7-0.1 2 0 2.7l3.4-0.8c0.2-0.6 0-1.4 0.6-1.8 0.6-0.4 1.4 0 1.5 0.7 0 0.1-0.1 0.6-0.1 0.7 0.4 0 0.8-0.2 1.2-0.3 0.5-0.1 1.7-0.4 2.2-0.3 0.8 0 1 1.1 0.3 1.4-0.7 0.3-1.8 0.3-2.5 0.5l-1.4 0.4c-0.2 2-0.5 4.3-0.2 6.3 0.9 4.8 5-1.1 5.7-3 0.4-1 0.3-1.7 1-2.7 1.4-1.8 4.1-2.1 4.4 0.5 0.3 1.6-1.6 3.4-3.2 3.2 0.1 0.2 0.3 0.4 0.4 0.5 2.1 1.3 5.9-1.2 6.8-3.2 0.7-1.7 0.9-3.1 2.4-4.5 1.3-1.2 4.1-2.4 5.1-0.4 1 1.9-0.4 3.6-1.9 4.7 2.3 1.1 4.9-0.6 6.3-2.4 0.2-0.3 0.7-1.2 0.8-1.6 0-0.2-0.1-0.6 0-0.9l-1.5 0.4c-0.4 0.1-0.8-0.4-0.9-0.8-0.2-1.2 1.6-1 2.3-1.3 0-1.4 0.1-3.2 0.8-4.4 0.9-1.6 3.4-1.5 4.4-0.1 0.5 0.7-0.3 1.7-1.1 1.4-0.3-0.1-0.5-0.3-0.8-0.5-1.2-0.5-1.4 1.3-1.4 2.1 0 0.1-0.1 1 0 1 0.4-0.2 0.9-0.2 1.3-0.3 0.3-0.1 0.6-0.3 1-0.3 1.2-0.2 1.5 1.3 0.5 1.7-0.4 0.2-2.7 0.6-2.8 0.7 0.1 2.4 0.1 4.9 0.2 7.3 0 1.1 0.3 2.6 0.2 3.6-0.1 1.2-1.9 1.3-2.2 0.2zm-19.8-4.3c0.7 0.6 1.7-0.6 1.6-1.3-0.1-0.6-0.4-0.6-0.9-0.4-0.5 0.2-1.3 1.2-0.7 1.7zm-40.4 7c-0.8-2.8-1.4-6.1-1.5-9-0.1-0.4-0.1-1.3 0-1.6 0.1-0.3 0.7-0.4 0.8 0 0.2 0.7 0.2 1.7 0.2 2.4 0.2 1.6 0.5 3.2 0.9 4.8l-0.2 3.8c-0.1-0.1-0.1-0.3-0.2-0.4zm-23.3-8.4c-0.4 0-0.8-0.4-0.7-0.8q0-1.9 0.2-3.8 0.3-4.6 0.8-9.1-1 0.2-2 0.5-1.8 0.5-3.6 1c-1.1 0.3-1.7-1.6-0.5-1.9q3.2-0.8 6.3-1.5 0-0.2 0-0.3c0.1-1.2 1.8-1.1 2.1-0.2q3.1-0.7 6.2-1.4c1-0.2 1.4 1.4 0.3 1.6q-3.3 0.8-6.6 1.6-0.7 4.9-1.3 9.8-0.2 1.9-0.3 3.8c-0.1 0.4-0.5 0.8-0.9 0.7zm6-12.8c0.6 0.3 0.7 1 0.4 1.6-0.3 0.5-1 0.7-1.6 0.4-0.5-0.4-0.7-1.1-0.4-1.6 0.4-0.6 1.1-0.7 1.6-0.4z"/>
	<path id="Path 2" fill-rule="evenodd" class="s0" d="m29.6 17c-0.5-2.1 1-4.7 2.7-5 1.7-0.4 2.4 0.7 2.6 1.8 0.2 1.7-1.8 3.4-3.3 3.2q0.2 0.2 0.3 0.3c1.9 1.3 4.4-0.2 5.8-1.6q0.6-0.7 1.1-1.5c0.4-1.4 1-2.8 2-4 1.1-1.4 3.7-2.8 5.3-1.2 1.3 1.9-0.1 3.9-1.7 5 2.7 1.4 6-1.1 7-3.9 0.4-0.9 1.9-0.3 1.5 0.6-0.4 1.1-1 2-1.7 2.8-1.8 2.2-5.1 3.6-7.8 2.1-0.8-0.5-2.3-1.3-1.5-2.3q0.1-0.2 0.3-0.3c1.1-0.5 2.4-1.2 2.4-2.5 0-0.2-0.1-0.3-0.3-0.3-2.3 0.6-3.4 3.3-4 5.4-0.4 1.6-0.6 3.2-0.8 4.8-0.1 0.9-1.5 0.9-1.5-0.1q0-1.5 0.2-3.1c-1.1 1-2.6 1.9-4.1 2.2-3.3 0.7-4.2-1-4.5-2.4zm3-1.4c0.6-0.3 1.1-1.6 0.4-1.9-0.7 0.1-1.2 0.6-1.5 1.2 0 0.6 0.4 1.1 1.1 0.7zm66.6 11.2c-0.4-5.1 0.2-10.2 0.2-15.2 0-1.4 2.3-1.3 2.1 0.1-0.2 3.6-1.7 13.4 0 16.1 1.4 1.9-2.1 3.4-2.3-1zm11.8-1.1c-2 5-6.6 8.6-11.6 10.1q-1.2 0.4-2.5 0.7c-0.4 0.2-0.9-0.1-1-0.6-0.1-0.4 0.2-0.9 0.6-1q1.2-0.3 2.4-0.7c4.5-1.5 8.6-4.7 10.3-9.2 0.4-1.2 1-3.2 1.1-4.7-0.5 0.9-0.9 1.9-1.3 2.8-0.8 1.5-2.1 3.3-4 3.1-1.3-0.1-2.2-1.2-2.4-2.4-0.2-1.5 0.1-2.8 0.6-4.2 0.5-1.5 2.6-0.7 2.1 0.7-0.3 0.9-0.9 3-0.3 3.7q0 0 0 0 0.1 0 0.1 0c1.3 0.3 2.5-3 3-4.1 0.5-0.9 0.9-2.2 2.1-2.5 3.7-0.4 1.5 6.5 0.8 8.3zm-48.3-14.2c0.2-1.6 1.5-2.9 2.9-3.7 0.1-0.1-0.1-0.2-0.2-0.2-1.9-1.7-2.2-4.5 0.1-5.9 1.2-0.7 2.9-1 4.2-0.6 0.1 0 0.3 0 0.3 0.1l0.4 1.4-0.1 0.1q0 0-0.1 0c-0.1 0-0.3-0.1-0.5-0.2-1-0.2-2.2-0.2-3.1 0.4-1.3 0.9-1.2 2.5-0.4 3.5 0.4 0.5 0.8 0.8 1.3 1.1-0.1 0.2 0 0.5-0.1 0.8-1.2 0.7-2.8 1.7-2.9 3.2-0.1 0.7 0.2 1.6 0.6 2.2 1 1 2.8 0.7 3.7-0.3 1.4-1.4 1.2-3.9 0.7-5.7 0-0.1-0.2-0.3-0.1-0.4l4.4-1.1q0.1 0.1 0.1 0.1v1.5 0.1h-0.1q-1.2 0.3-2.5 0.6c-0.1 0-0.2 0-0.2 0.2 0 0.2 0.1 0.5 0.1 0.7 0.5 3.2-1.3 6.4-4.8 6.5-2.4 0.1-3.9-2.1-3.7-4.4zm-50 15.4c0.7-0.6 1.9-1.2 3.1-1.5l-0.2 1.8q-0.7 0-1.3 0.2c-0.2-0.4-0.4-0.9-0.4-0.9v1.1c-0.6 0.4-1.1 0.8-1.5 1.3-0.3 0-0.7-0.2-1-0.3q0.3-0.7 0.8-1.3l0.5 0.6-0.2-0.9q0.1 0 0.2-0.1zm4.4-1.6v1.3c0 0 0.2-0.9 0.4-1.4q0.9 0 1.6 0.3c1.2 0.4 1.2 2.1-0.1 2.4-0.6 0.1-1.6-0.6-2.4-0.7q-0.2 0-0.5 0v-1.8q0.5-0.1 1-0.1z"/>
	<path id="Path 3" fill-rule="evenodd" class="s0" d="m27.9 13.7c0.5 4.2 0.1 7.7-1.2 10.6q0 0.2-0.1 0.4c-0.7 1.6-2 3.3-3.3 4.6l-1.4-1.3c0.6-0.7 1.2-1.5 1.7-2.3q0.8-1.1 1.3-2.5 0.1-0.2 0.2-0.4 0.6-1.7 0.7-3.9c-1.1 2.4-3 4.5-5.1 3.3-0.6-0.4-1-0.9-1.2-1.4q-0.2 0.2-0.4 0.3-0.4 0.4-0.9 0.7c-0.4 0.2-0.7 0.4-1.2 0.5q-0.4 0.1-0.8 0c-0.3 0-0.6-0.1-0.9-0.3q-0.4-0.4-0.6-0.7-0.1-0.4-0.2-0.7c-0.1-0.5-0.1-0.9-0.1-1.3 0.1-0.5 0.5-0.9 1-0.9 0.5 0 0.9 0.5 0.9 1q0 0 0 0v0.1q0 0.4 0 0.7 0 0.2 0.1 0.3 0 0 0 0.1 0 0 0.1 0 0 0 0.2 0c0.2 0 0.4-0.1 0.6-0.3 0.5-0.2 1-0.6 1.4-1.1q0.3-0.3 0.6-0.6c0.3-2.9 3-6 5.7-4.9q0.4 0.2 0.7 0.6c-0.4-1.6 1.8-2.3 2.2-0.6zm-2.4 2.8c-0.5 0.1-1.1-0.1-1.2-0.7-0.3-1.1-1.8 0.3-2.2 0.9-0.7 0.8-1.8 4.5 0.2 4 1.6-0.7 2.5-2.2 3-3.8q0.1-0.2 0.2-0.4zm-3.7 11.6l0.9 1.9c-0.6 0.6-1.2 1.2-1.6 1.6q-0.4 0.3-0.7 0.6-0.1 0.1-0.1 0.1c-0.8 0.6-1.7 1.1-2.6 1.5l-0.5-1.1 0.2 1.2q-0.9 0.3-1.9 0.3c0-0.3 0-0.9 0-1.3q0.7-0.2 1.4-0.5 0.7-0.3 1.3-0.7l0.6 1.2-0.4-1.4q0.7-0.6 1.3-1.2 0.2-0.2 0.5-0.5l0.8 1-0.3-1.5q0.5-0.5 1.1-1.2zm-6.8 4.8c0.1 0.4 0.4 1 0.5 1.3q-0.7 0-1.5-0.1-0.2-0.1-0.4-0.2l-0.1-0.7-0.3 0.6q-1.1-0.5-1.6-1.3l0.5-0.6-0.7 0.3c-0.5-1-0.6-2.3-0.1-3.4l0.9 0.7q-0.2 0.5-0.1 1.1l-0.7 0.2 0.8 0.2q0.1 0.2 0.1 0.3c0.5 1.2 1.6 1.6 2.7 1.6z"/>
</svg>